# xmcd
#
# Track frame offsets:
#   150
#   21282
#   41380
#   57558
#   77740
#   94860
#   113266
#   129758
#   146059
#   162008
#   176418
#   197906
#   222742
#   241659
#   258250
#   275640
#   296076
#   311664
#   330024
#   343594
#
# Disc length: 4794 seconds
#
# Revision: 0
# Processed by: cddbd v1.5.1PL0 Copyright (c) Steve Scherf et al.
# Submitted via: uFREEDB ActiveX Control 1.5
#
DISCID=1b12b814
DTITLE=RICK E RENNER - AS 20 MAIS
DYEAR=1900
DGENRE=Country
TTITLE0=A FORCA DO AMOR
TTITLE1=SO PENSANDO EM VC
TTITLE2=EU SEM VOCE
TTITLE3=O AMOR E EU
TTITLE4=NOS BARES DA CIDADE
TTITLE5=ONDE ANDA VOCE
TTITLE6=DE BARRETOS ANASHIVILLE
TTITLE7=VOCE DECIDE
TTITLE8=FICA AMOR TA CEDO
TTITLE9=ENROSCA
TTITLE10=E DEZ E CEM E MIL
TTITLE11=DA TERRA AO CEU
TTITLE12=CARA DE PAU
TTITLE13=RODEIO E VAQUEJADA
TTITLE14=NOIS TROPICA MAIS NAO CAI
TTITLE15=FILHA
TTITLE16=ELA E DEMAIS
TTITLE17=SEGUIR EM FRENTE
TTITLE18=QUE NEM CHICLETE
TTITLE19=MULECA
EXTD=
EXTT0=
EXTT1=
EXTT2=
EXTT3=
EXTT4=
EXTT5=
EXTT6=
EXTT7=
EXTT8=
EXTT9=
EXTT10=
EXTT11=
EXTT12=
EXTT13=
EXTT14=
EXTT15=
EXTT16=
EXTT17=
EXTT18=
EXTT19=
PLAYORDER=
